<svg width="50" height="51" viewBox="0 0 50 51" fill="none" xmlns="http://www.w3.org/2000/svg">
<path d="M45.1047 19.5644L29.6907 19.5628L29.6899 5.25956C29.6907 2.55596 27.4982 0.364258 24.7946 0.364258C22.0918 0.364258 19.9001 2.55596 19.9001 5.25956V19.5636L4.8953 19.5628C2.1917 19.5636 0 21.7553 0 24.4581C0.00165662 27.1617 2.1917 29.3526 4.8953 29.3526H19.9001V45.469C19.9001 48.175 22.0918 50.3643 24.7954 50.3643C27.499 50.3643 29.6899 48.1726 29.6907 45.4706V29.3526H45.1064C47.8083 29.3526 50 27.1617 50 24.4597C50.0025 21.7545 47.8083 19.5628 45.1047 19.5644Z" fill="white"/>
</svg>
