<svg width="51" height="51" viewBox="0 0 51 51" fill="none" xmlns="http://www.w3.org/2000/svg">
<path d="M19.6561 23.6005H12.6378C11.6807 23.6005 10.7624 23.2221 10.0832 22.5478C9.40405 21.8734 9.01904 20.9579 9.01221 20.0008V12.9826C9.01221 12.021 9.39419 11.0988 10.0741 10.4189C10.7541 9.73892 11.6763 9.35693 12.6378 9.35693H19.6561C20.6131 9.36377 21.5287 9.74877 22.203 10.428C22.8774 11.1072 23.2558 12.0255 23.2558 12.9826V20.0008C23.2558 20.9555 22.8765 21.8711 22.2015 22.5462C21.5264 23.2213 20.6108 23.6005 19.6561 23.6005ZM12.8968 19.7159H19.3712V13.2415H12.8968V19.7159Z" fill="black"/>
<path d="M37.888 23.6005H30.8439C29.8892 23.6005 28.9736 23.2213 28.2985 22.5462C27.6234 21.8711 27.2441 20.9555 27.2441 20.0008V12.9826C27.2441 12.0255 27.6225 11.1072 28.2969 10.428C28.9712 9.74877 29.8868 9.36377 30.8439 9.35693H37.888C38.8451 9.36377 39.7606 9.74877 40.435 10.428C41.1093 11.1072 41.4878 12.0255 41.4877 12.9826V20.0008C41.4877 20.9555 41.1085 21.8711 40.4334 22.5462C39.7583 23.2213 38.8427 23.6005 37.888 23.6005ZM31.1288 19.7159H37.6031V13.2415H31.1288V19.7159Z" fill="black"/>
<path d="M19.6561 42.1435H12.6378C11.6763 42.1435 10.7541 41.7615 10.0741 41.0816C9.39419 40.4016 9.01221 39.4794 9.01221 38.5179V31.4996C9.01904 30.5426 9.40405 29.627 10.0832 28.9527C10.7624 28.2783 11.6807 27.8999 12.6378 27.8999H19.6561C20.6108 27.8999 21.5264 28.2792 22.2015 28.9542C22.8765 29.6293 23.2558 30.5449 23.2558 31.4996V38.5179C23.2558 39.475 22.8774 40.3933 22.203 41.0725C21.5287 41.7517 20.6131 42.1367 19.6561 42.1435V42.1435ZM12.8968 38.2589H19.3712V31.7845H12.8968V38.2589Z" fill="black"/>
<path d="M37.888 42.4277H30.8439C30.3712 42.4277 29.9031 42.3346 29.4663 42.1537C29.0296 41.9728 28.6327 41.7076 28.2985 41.3733C27.9642 41.0391 27.6991 40.6422 27.5182 40.2055C27.3373 39.7688 27.2441 39.3007 27.2441 38.8279V31.7838C27.2441 30.8291 27.6234 29.9135 28.2985 29.2384C28.9736 28.5633 29.8892 28.1841 30.8439 28.1841H37.888C38.8406 28.1909 39.7523 28.5723 40.4259 29.2459C41.0995 29.9195 41.481 30.8312 41.4877 31.7838V38.8279C41.4877 39.3007 41.3946 39.7688 41.2137 40.2055C41.0328 40.6422 40.7677 41.0391 40.4334 41.3733C40.0991 41.7076 39.7023 41.9728 39.2655 42.1537C38.8288 42.3346 38.3607 42.4277 37.888 42.4277V42.4277ZM31.1288 38.5431H37.6031V32.0687H31.1288V38.5431Z" fill="black"/>
<path d="M1.94231 16.0385C1.42926 16.0318 0.939115 15.825 0.576306 15.4622C0.213496 15.0993 0.00670734 14.6092 0 14.0962V2.44231C0.00670734 1.92926 0.213496 1.43912 0.576306 1.07631C0.939115 0.713496 1.42926 0.506707 1.94231 0.5H13.5962C14.1113 0.5 14.6053 0.704635 14.9696 1.06889C15.3338 1.43314 15.5385 1.92718 15.5385 2.44231C15.5385 2.95744 15.3338 3.45147 14.9696 3.81573C14.6053 4.17998 14.1113 4.38462 13.5962 4.38462H3.88462V14.0962C3.87791 14.6092 3.67112 15.0993 3.30831 15.4622C2.9455 15.825 2.45535 16.0318 1.94231 16.0385V16.0385Z" fill="black"/>
<path d="M48.5576 16.0385C48.0445 16.0318 47.5544 15.825 47.1916 15.4622C46.8288 15.0993 46.622 14.6092 46.6153 14.0962V4.38462H36.9037C36.3886 4.38462 35.8946 4.17998 35.5303 3.81573C35.1661 3.45147 34.9614 2.95744 34.9614 2.44231C34.9614 1.92718 35.1661 1.43314 35.5303 1.06889C35.8946 0.704635 36.3886 0.5 36.9037 0.5H48.5576C49.0706 0.506707 49.5608 0.713496 49.9236 1.07631C50.2864 1.43912 50.4932 1.92926 50.4999 2.44231V14.0962C50.4932 14.6092 50.2864 15.0993 49.9236 15.4622C49.5608 15.825 49.0706 16.0318 48.5576 16.0385Z" fill="black"/>
<path d="M48.5576 50.9999H36.9037C36.3886 50.9999 35.8946 50.7953 35.5303 50.431C35.1661 50.0667 34.9614 49.5727 34.9614 49.0576C34.9614 48.5424 35.1661 48.0484 35.5303 47.6842C35.8946 47.3199 36.3886 47.1153 36.9037 47.1153H46.6153V37.4037C46.6153 36.8886 46.8199 36.3946 47.1842 36.0303C47.5484 35.6661 48.0424 35.4614 48.5576 35.4614C49.0727 35.4614 49.5667 35.6661 49.931 36.0303C50.2953 36.3946 50.4999 36.8886 50.4999 37.4037V49.0576C50.4932 49.5706 50.2864 50.0608 49.9236 50.4236C49.5608 50.7864 49.0706 50.9932 48.5576 50.9999Z" fill="black"/>
<path d="M13.5962 50.9999H1.94231C1.42926 50.9932 0.939115 50.7864 0.576306 50.4236C0.213496 50.0608 0.00670734 49.5706 0 49.0576V37.4037C0 36.8886 0.204635 36.3946 0.568889 36.0303C0.933142 35.6661 1.42718 35.4614 1.94231 35.4614C2.45744 35.4614 2.95147 35.6661 3.31573 36.0303C3.67998 36.3946 3.88462 36.8886 3.88462 37.4037V47.1153H13.5962C14.1113 47.1153 14.6053 47.3199 14.9696 47.6842C15.3338 48.0484 15.5385 48.5424 15.5385 49.0576C15.5385 49.5727 15.3338 50.0667 14.9696 50.431C14.6053 50.7953 14.1113 50.9999 13.5962 50.9999Z" fill="black"/>
</svg>
